<svg width="100" height="100" viewBox="0 0 551 470" fill="none" xmlns="http://www.w3.org/2000/svg">
<path d="M311.917 271.991C303.452 261.961 306.836 252.095 312.146 245.483C315.364 241.475 320.597 240 325.737 240H377.323C380.323 240 386.623 241 387.823 245C387.952 245.431 388.021 245.819 388.037 246.169C388.243 250.48 380.569 247.228 376.323 248C371.923 248.8 370.156 254.667 369.823 257.5C368.836 262.433 370.461 265.845 372.515 267.971C374.609 270.137 377.882 270.154 380.823 269.5C383.489 269 388.823 268.8 388.823 272C388.823 274.466 385.656 276.101 382.982 276.95C381.568 277.399 380.076 277.5 378.592 277.5H325.908C320.663 277.5 315.3 275.999 311.917 271.991Z" fill="#F9E400"/>
<path d="M310.917 367.991C302.452 357.961 305.836 348.095 311.146 341.483C314.364 337.475 319.597 336 324.737 336H404.323C407.323 336 413.623 337 414.823 341C414.952 341.431 415.021 341.819 415.037 342.169C415.243 346.48 407.569 343.228 403.323 344C398.923 344.8 397.156 350.667 396.823 353.5C395.836 358.433 397.461 361.845 399.515 363.971C401.609 366.137 404.882 366.154 407.823 365.5C410.489 365 415.823 364.8 415.823 368C415.823 370.466 412.656 372.101 409.982 372.95C408.568 373.399 407.076 373.5 405.592 373.5H324.908C319.663 373.5 314.3 371.999 310.917 367.991Z" fill="#F9E400"/>
<path d="M287.46 319.991C278.995 309.961 282.379 300.095 287.689 293.483C290.907 289.475 296.14 288 301.28 288H466.866C469.866 288 476.166 289 477.366 293C477.495 293.431 477.564 293.819 477.58 294.169C477.786 298.48 470.112 295.228 465.866 296C461.466 296.8 459.699 302.667 459.366 305.5C458.379 310.433 460.004 313.845 462.058 315.971C464.152 318.137 467.425 318.154 470.366 317.5C473.032 317 478.366 316.8 478.366 320C478.366 322.466 475.199 324.101 472.525 324.95C471.111 325.399 469.619 325.5 468.135 325.5H301.451C296.206 325.5 290.843 323.999 287.46 319.991Z" fill="#F9E400"/>
<path d="M461.14 278.5H435.381C434.465 278.5 433.66 277.851 433.429 276.965C412.318 195.935 356.329 182.856 330.823 186.5L240.323 192C131.923 200.8 91.156 151.667 84.3227 126C66.4751 29.4776 171.925 4.4022 241.512 3.20656C254.378 2.9855 267.221 4.6606 279.658 7.96202C453.773 54.1806 475.077 203.936 463.096 276.879C462.939 277.839 462.113 278.5 461.14 278.5Z" fill="#F9E400"/>
<path d="M370.195 230.5H379.195C381.017 230.5 381.853 228.301 380.427 227.166C360.991 211.7 336.966 208.876 326.823 209.5C266.423 215.5 249.656 277 248.823 307C252.228 381.163 301.837 402.412 330.185 404.351C333.275 404.562 336.356 404.89 339.454 404.919C354.173 405.054 370.407 394.57 379.627 386.81C381.005 385.65 380.158 383.5 378.357 383.5H370.949C370.541 383.5 370.141 383.627 369.804 383.856C355.558 393.528 340.586 394.659 334.823 394C279.623 384.8 266.823 332.167 267.323 307C268.123 249.4 307.323 225.667 326.823 221C349.418 217.553 363.733 225.137 368.714 229.885C369.116 230.268 369.639 230.5 370.195 230.5Z" fill="#F9E400"/>
<path d="M99.8227 341C24.2358 267.636 30.0492 166.014 44.6959 114.741C45.3151 112.574 42.3928 111.055 41.056 112.87C-33.747 214.439 10.3253 325.862 42.8228 370C163.335 513.688 299.452 472.187 358.336 429.997C360.001 428.804 358.897 426.258 356.863 426.505C235.788 441.222 135.427 376.115 99.8227 341Z" fill="#F9E400"/>
<path d="M418.323 258.5C418.323 266.508 411.831 273 403.823 273C395.815 273 389.323 266.508 389.323 258.5C389.323 250.492 395.815 244 403.823 244C411.831 244 418.323 250.492 418.323 258.5ZM398.097 258.5C398.097 261.662 400.66 264.226 403.823 264.226C406.985 264.226 409.549 261.662 409.549 258.5C409.549 255.338 406.985 252.774 403.823 252.774C400.66 252.774 398.097 255.338 398.097 258.5Z" fill="#F9E400"/>
<path d="M374.323 258.5C374.323 256.015 376.337 254 378.823 254H392.323V263H378.823C376.337 263 374.323 260.985 374.323 258.5Z" fill="#F9E400"/>
<path d="M550.323 306.5C550.323 314.508 543.831 321 535.823 321C527.815 321 521.323 314.508 521.323 306.5C521.323 298.492 527.815 292 535.823 292C543.831 292 550.323 298.492 550.323 306.5ZM530.097 306.5C530.097 309.662 532.66 312.226 535.823 312.226C538.985 312.226 541.549 309.662 541.549 306.5C541.549 303.338 538.985 300.774 535.823 300.774C532.66 300.774 530.097 303.338 530.097 306.5Z" fill="#F9E400"/>
<path d="M462.323 306.5C462.323 304.015 464.337 302 466.823 302H524.323V311H466.823C464.337 311 462.323 308.985 462.323 306.5Z" fill="#F9E400"/>
<path d="M500.323 354.5C500.323 362.508 493.831 369 485.823 369C477.815 369 471.323 362.508 471.323 354.5C471.323 346.492 477.815 340 485.823 340C493.831 340 500.323 346.492 500.323 354.5ZM480.097 354.5C480.097 357.662 482.66 360.226 485.823 360.226C488.985 360.226 491.549 357.662 491.549 354.5C491.549 351.338 488.985 348.774 485.823 348.774C482.66 348.774 480.097 351.338 480.097 354.5Z" fill="#F9E400"/>
<path d="M401.323 354.5C401.323 352.015 403.337 350 405.823 350H474.323V359H405.823C403.337 359 401.323 356.985 401.323 354.5Z" fill="#F9E400"/>
<ellipse cx="215.606" cy="79.4303" rx="115.405" ry="59.4688" transform="rotate(-10.459 215.606 79.4303)" fill="white" fill-opacity="0.5"/>
</svg>
