<svg width="24" height="24" viewBox="0 0 24 24" fill="none" xmlns="http://www.w3.org/2000/svg">
<path fill-rule="evenodd" clip-rule="evenodd" d="M14.5 5.75C13.5335 5.75 12.75 6.5335 12.75 7.5V10.05C12.75 10.1605 12.8395 10.25 12.95 10.25H16.7694C16.8911 10.25 16.9846 10.3578 16.9674 10.4783L16.5245 13.5783C16.5105 13.6768 16.4261 13.75 16.3265 13.75H12.95C12.8395 13.75 12.75 13.8395 12.75 13.95V21.8C12.75 21.9105 12.6605 22 12.55 22H9.45C9.33954 22 9.25 21.9105 9.25 21.8V13.95C9.25 13.8395 9.16046 13.75 9.05 13.75H6.2C6.08954 13.75 6 13.6605 6 13.55V10.45C6 10.3395 6.08954 10.25 6.2 10.25H9.05C9.16046 10.25 9.25 10.1605 9.25 10.05V7.5C9.25 4.60051 11.6005 2.25 14.5 2.25H17.3C17.4105 2.25 17.5 2.33954 17.5 2.45V5.55C17.5 5.66046 17.4105 5.75 17.3 5.75H14.5Z" fill="#F9E400"/>
</svg>
