<svg width="24" height="24" viewBox="0 0 24 24" fill="none" xmlns="http://www.w3.org/2000/svg">
<path d="M12 16C13.933 16 15.5 14.433 15.5 12.5C15.5 10.567 13.933 9 12 9C10.067 9 8.5 10.567 8.5 12.5C8.5 14.433 10.067 16 12 16Z" fill="#F9E400"/>
<path fill-rule="evenodd" clip-rule="evenodd" d="M2 12C2 8.26154 2 6.3923 2.80385 5C3.33046 4.08788 4.08788 3.33046 5 2.80385C6.3923 2 8.26154 2 12 2C15.7385 2 17.6077 2 19 2.80385C19.9121 3.33046 20.6695 4.08788 21.1962 5C22 6.3923 22 8.26154 22 12C22 15.7385 22 17.6077 21.1962 19C20.6695 19.9121 19.9121 20.6695 19 21.1962C17.6077 22 15.7385 22 12 22C8.26154 22 6.3923 22 5 21.1962C4.08788 20.6695 3.33046 19.9121 2.80385 19C2 17.6077 2 15.7385 2 12ZM12 17.5C14.7614 17.5 17 15.2614 17 12.5C17 9.73858 14.7614 7.5 12 7.5C9.23858 7.5 7 9.73858 7 12.5C7 15.2614 9.23858 17.5 12 17.5ZM16.5 8C17.3284 8 18 7.32843 18 6.5C18 5.67157 17.3284 5 16.5 5C15.6716 5 15 5.67157 15 6.5C15 7.32843 15.6716 8 16.5 8Z" fill="#F9E400"/>
</svg>
