<svg viewBox="0 0 512 512" xmlns="http://www.w3.org/2000/svg" fill-rule="evenodd" clip-rule="evenodd" stroke-linejoin="round" stroke-miterlimit="2"><path d="M-.103 103.379v315.737c3.342 11.843 14.271 20.588 27.144 20.588H483.7c15.509 0 28.197-12.689 28.197-28.198V110.99c0-15.509-12.688-28.198-28.197-28.198H27.041c-12.873 0-23.802 8.744-27.144 20.587z" fill="#ce1720" fill-rule="nonzero"/><g transform="translate(-.103 82.747)"><clipPath id="prefix__a"><path d="M83.091.044V241.16h3.174v112.628l-3.17 3.168H27.144c-9.694 0-18.288-4.96-23.367-12.467V12.513C8.856 5.005 17.45.045 27.144.045h55.947z"/></clipPath><g fill="#fff" fill-rule="nonzero" clip-path="url(#prefix__a)"><path d="M18.054.041v5.552h-3.57v5.552h-4.362v6.345H6.949v5.155H.604V9.558h6.345V2.42H.604V.041h17.45zm10.311 30.537v5.949h-3.173v4.759h-3.173v-4.759h-3.172v-5.949h-3.173v-7.933h3.173v-5.948h3.172v-4.759h3.173v4.759h3.173v5.948h3.172v7.933h-3.172zm-6.742-.397h3.966v-7.138h-3.966v7.138zM11.312 72.614h3.172v-7.138h-3.172v7.138zm21.415 0h3.172v-7.138h-3.172v7.138zM.604 120.997h5.552v5.155h2.38v6.346h3.569v5.949h4.759v-5.949h3.569v-6.346h3.172v-5.155h-4.758v-5.949h8.328v3.965h5.155v6.743h4.362v7.535H33.52v5.551h-2.776v5.156h-2.379v5.552h-3.57v4.759h-2.776v4.362H18.45v5.552h-5.156v-5.948H9.725v-5.553H6.949v-3.569H.604v-9.122h6.345V132.1H.604v-11.104zM68.815.041v5.552h3.569v5.552h4.363v6.345h3.172v5.155h6.346V9.558h-6.346V2.42h6.346V.041h-17.45zM58.504 30.578v5.949h3.173v4.759h3.173v-4.759h3.172v-5.949h3.173v-7.933h-3.173v-5.948H64.85v-4.759h-3.173v4.759h-3.173v5.948h-3.172v7.933h3.172zm6.742-.397H61.28v-7.138h3.966v7.138zm10.311 42.433h-3.173v-7.138h3.173v7.138zm-21.415 0h-3.173v-7.138h3.173v7.138zm32.123 48.383h-5.552v5.155h-2.38v6.346h-3.569v5.949h-4.759v-5.949h-3.569v-6.346h-3.173v-5.155h4.759v-5.949h-8.328v3.965h-5.155v6.743h-4.363v7.535h3.173v5.551h2.776v5.156h2.379v5.552h3.569v4.759h2.777v4.362h3.569v5.552h5.155v-5.948h3.57v-5.553h2.775v-3.569h6.346v-9.122h-6.346V132.1h6.346v-11.104z"/><path d="M41.848.041v12.69h3.173V.041h12.69v5.552h-3.172v5.552h-4.76v6.345h-3.172v5.155h-6.345V17.49h-3.173v-6.345H32.33V5.593h-3.172V.041h12.69zm-.793 108.662v-4.362h-2.379v-5.156h-2.777v-5.553h-3.172v-5.551h-3.173v-3.965h-3.569v-5.552h-4.759v5.552h-3.569v3.965h-2.776v5.551h-3.173v5.552H9.329v5.156h-2.38v6.743H.604V93.632h6.345v-7.93H.604V72.614h6.345v5.552h3.966v5.552h3.966v-5.552h3.966v-5.552h3.172v-7.138h-3.172v-5.553h-3.966v-5.552h-3.966v5.552H6.949v5.553H.604v-16.26h6.345v-7.535H.604V30.577h6.345v5.155h3.173v6.346h4.362v5.155h3.57v5.949h2.775v4.759h5.552v-4.759h2.777v-5.949h3.569v-5.155h4.362v-6.346h3.173v-5.155h6.345v5.155h3.172v6.346h4.363v5.155h3.569v5.949h2.776v4.759h5.552v-4.759h2.776v-5.949h3.569v-5.155h4.363v-6.346h3.172v-5.155h6.345v11.104h-6.345v7.535h6.345v16.26h-6.345v-5.553h-3.966v-5.552h-3.965v5.552h-3.966v5.553H64.85v7.138h3.172v5.552h3.966v5.552h3.965v-5.552h3.966v-5.552h6.345v13.088h-6.345v7.93h6.345v17.451h-6.345v-6.743H77.54v-5.156h-2.38v-5.552h-3.172v-5.551h-2.776v-3.965h-3.57v-5.552h-4.758v5.552h-3.57v3.965h-3.172v5.551h-3.173v5.552h-2.776v5.156h-2.379v4.362h-4.759zm.793-66.228v10.708h3.173V42.475h-3.173zm-1.586 23.002v-5.553h-3.966v-5.552H32.33v5.552h-3.965v5.553h-3.173v7.138h3.173v5.552h3.965v5.552h3.966v-5.552h3.966v-5.552h6.345v5.552h3.966v5.552h3.966v-5.552h3.965v-5.552h3.173v-7.138h-3.173v-5.553h-3.965v-5.552h-3.966v5.552h-3.966v5.553h-6.345zm1.586 18.242v10.708h3.173V83.719h-3.173zM18.054 356.96v-5.553h-3.57v-5.552h-4.362v-6.345H6.949v-5.155H.604v13.087h6.345v7.137H.604v2.38h17.45zm10.311-30.537v-5.948h-3.173v-4.76h-3.173v4.76h-3.172v5.948h-3.173v7.932h3.173v5.949h3.172v4.758h3.173v-4.758h3.173v-5.949h3.172v-7.932h-3.172zm-6.742.397h3.966v7.138h-3.966v-7.138zm-10.311-42.434h3.172v7.139h-3.172v-7.139zm21.415 0h3.172v7.139h-3.172v-7.139zM.604 236.004h5.552v-5.155h2.38v-6.346h3.569v-5.95h4.759v5.95h3.569v6.346h3.172v5.155h-4.758v5.949h8.328v-3.966h5.155v-6.742h4.362v-7.535H33.52v-5.552h-2.776v-5.155h-2.379v-5.553h-3.57v-4.758h-2.776v-4.363H18.45v-5.553h-5.156v5.949H9.725v5.553H6.949v3.569H.604v9.122h6.345v7.931H.604v11.104zM68.815 356.96v-5.553h3.569v-5.552h4.363v-6.345h3.172v-5.155h6.346v13.087h-6.346v7.137h6.346v2.38h-17.45zm-10.311-30.537v-5.948h3.173v-4.76h3.173v4.76h3.172v5.948h3.173v7.932h-3.173v5.949H64.85v4.758h-3.173v-4.758h-3.173v-5.949h-3.172v-7.932h3.172zm6.742.397H61.28v7.138h3.966v-7.138zm10.311-42.434h-3.173v7.139h3.173v-7.139zm-21.415 0h-3.173v7.139h3.173v-7.139zm32.123-48.382h-5.552v-5.155h-2.38v-6.346h-3.569v-5.95h-4.759v5.95h-3.569v6.346h-3.173v5.155h4.759v5.949h-8.328v-3.966h-5.155v-6.742h-4.363v-7.535h3.173v-5.552h2.776v-5.155h2.379v-5.553h3.569v-4.758h2.777v-4.363h3.569v-5.553h5.155v5.949h3.57v5.553h2.775v3.569h6.346v9.122h-6.346v7.931h6.346v11.104z"/><path d="M41.848 356.96v-12.691h3.173v12.691h12.69v-5.553h-3.172v-5.552h-4.76v-6.345h-3.172v-5.155h-6.345v5.155h-3.173v6.345H32.33v5.552h-3.172v5.553h12.69zm-.793-108.662v4.362h-2.379v5.156h-2.777v5.552h-3.172v5.552h-3.173v3.965h-3.569v5.553h-4.759v-5.553h-3.569v-3.965h-2.776v-5.552h-3.173v-5.552H9.329v-5.156h-2.38v-6.742H.604v17.45h6.345v7.931H.604v13.087h6.345v-5.553h3.966v-5.552h3.966v5.552h3.966v5.553h3.172v7.139h-3.172v5.552h-3.966v5.552h-3.966v-5.552H6.949v-5.552H.604v16.259h6.345v7.535H.604v11.104h6.345v-5.155h3.173v-6.345h4.362v-5.156h3.57v-5.949h2.775v-4.759h5.552v4.759h2.777v5.949h3.569v5.156h4.362v6.345h3.173v5.155h6.345v-5.155h3.172v-6.345h4.363v-5.156h3.569v-5.949h2.776v-4.759h5.552v4.759h2.776v5.949h3.569v5.156h4.363v6.345h3.172v5.155h6.345v-11.104h-6.345v-7.535h6.345v-16.259h-6.345v5.552h-3.966v5.552h-3.965v-5.552h-3.966v-5.552H64.85v-7.139h3.172v-5.553h3.966v-5.552h3.965v5.552h3.966v5.553h6.345v-13.087h-6.345v-7.931h6.345v-17.45h-6.345v6.742H77.54v5.156h-2.38v5.552h-3.172v5.552h-2.776v3.965h-3.57v5.553h-4.758v-5.553h-3.57v-3.965h-3.172v-5.552h-3.173v-5.552h-2.776v-5.156h-2.379v-4.362h-4.759zm.793 66.227v-10.707h3.173v10.707h-3.173zm-1.586-23v5.552h-3.966v5.552H32.33v-5.552h-3.965v-5.552h-3.173v-7.139h3.173v-5.553h3.965v-5.552h3.966v5.552h3.966v5.553h6.345v-5.553h3.966v-5.552h3.966v5.552h3.965v5.553h3.173v7.139h-3.173v5.552h-3.965v5.552h-3.966v-5.552h-3.966v-5.552h-6.345zm1.586-18.243v-10.707h3.173v10.707h-3.173zM.604 161.845h6.345v5.552h2.776v3.172h3.173v5.552h2.776v4.758h-2.776v5.552H9.725v3.173H6.949v5.551H.604v-33.311zm85.66 0v33.311h-6.345v-5.551h-2.775v-3.173h-3.173v-5.552h-2.776v-4.759h2.776v-5.552h3.173v-3.172h2.775v-5.552h6.345zm-57.899 20.224h3.172v-7.138h-3.172v7.138zm30.139 0v-7.138h-3.172v7.138h3.172zm-16.656-23.397h3.173v-7.138h-3.173v7.138zm0 39.657v7.138h3.173v-7.138h-3.173zm-19.829-29.742h5.552v-4.363h3.966v-3.966h1.983v-3.967h2.379v-5.55h3.173v-5.553h1.586v-5.156h5.552v5.156h1.587v5.553h3.172v5.55h2.38v3.967h1.983v3.966h3.965v4.363h5.553v19.829h-5.553v4.362h-3.965v3.965h-1.983v3.966h-2.38v5.552h-3.172v5.552H46.21v5.156h-5.552v-5.156h-1.586v-5.552h-3.173v-5.552H33.52v-3.966h-1.983v-3.965h-3.966v-4.362h-5.552v-19.829zm19.829 3.569v-5.95h-3.172v-3.966h-3.173v9.915h3.173v3.569h1.982v5.551h-1.982v3.571h-3.173v9.913h3.173v-3.966h3.172v-5.947h3.173v5.947h3.172v3.966h3.173v-9.913h-3.173v-3.571H46.21v-5.551h1.983v-3.569h3.173v-9.915h-3.173v3.966h-3.172v5.95h-3.173z"/></g></g><path d="M82.988 82.791v241.116h3.174v112.628l-3.17 3.168H27.041c-9.694 0-18.288-4.96-23.367-12.467V95.26c5.079-7.508 13.673-12.468 23.367-12.468h55.947z" fill="none"/><path d="M511.897 320.734H82.99v118.97H483.7c15.509 0 28.197-12.689 28.197-28.198v-90.772z" fill="#007c30" fill-rule="nonzero"/></svg>