<svg width="19" height="20" viewBox="0 0 19 20" fill="none" xmlns="http://www.w3.org/2000/svg">
<path d="M1.05751 3.70075L1.91694 1.98188C2.52744 0.760884 4.15472 0.496809 5.12001 1.46209L7.40174 3.74383C8.01046 4.35255 8.16137 5.28249 7.77638 6.05247L7.51365 6.57793C7.09095 7.42333 7.08392 8.42371 7.57646 9.23042C7.96206 9.86197 8.45572 10.5873 8.94737 11.0789C9.37109 11.5026 9.96837 11.9279 10.5296 12.2841C11.4702 12.8812 12.6701 12.7686 13.5674 12.1084C14.3676 11.5196 15.4805 11.6163 16.1671 12.3343L18.1265 14.3831C19.0571 15.3562 18.7798 16.9522 17.5756 17.5543L15.7992 18.4425C14.4187 19.1327 12.8546 19.4259 11.3954 18.923C9.6427 18.3188 7.13081 17.1108 4.76 14.74C2.38918 12.3692 1.1812 9.85728 0.577018 8.10455C0.0740292 6.64538 0.367261 5.08124 1.05751 3.70075Z" fill="white"/>
</svg>
