<svg width="12" height="16" viewBox="0 0 12 16" fill="none" xmlns="http://www.w3.org/2000/svg">
<path fill-rule="evenodd" clip-rule="evenodd" d="M3.49996 0.5H7.11925C8.0033 0.5 8.85115 0.85119 9.47627 1.47631L10.857 2.85702C11.4821 3.48214 11.8333 4.32999 11.8333 5.21405V12.1667C11.8333 14.0076 10.3409 15.5 8.49996 15.5H3.49996C1.65901 15.5 0.166626 14.0076 0.166626 12.1667V3.83333C0.166626 1.99238 1.65901 0.5 3.49996 0.5ZM6.62496 5.5C6.62496 5.15482 6.34514 4.875 5.99996 4.875C5.65478 4.875 5.37496 5.15482 5.37496 5.5V8.99112L4.77523 8.39139C4.53116 8.14731 4.13543 8.14731 3.89135 8.39139C3.64727 8.63547 3.64727 9.0312 3.89135 9.27528L5.55802 10.9419C5.67523 11.0592 5.8342 11.125 5.99996 11.125C6.16572 11.125 6.32469 11.0592 6.4419 10.9419L8.10857 9.27528C8.35264 9.0312 8.35264 8.63547 8.10857 8.39139C7.86449 8.14731 7.46876 8.14731 7.22468 8.39139L6.62496 8.99112V5.5Z" fill="white"/>
</svg>
