<svg width="18" height="21" viewBox="0 0 18 21" fill="none" xmlns="http://www.w3.org/2000/svg">
<path d="M11.5 9.5C11.5 10.8807 10.3807 12 9 12C7.61929 12 6.5 10.8807 6.5 9.5C6.5 8.11929 7.61929 7 9 7C10.3807 7 11.5 8.11929 11.5 9.5Z" fill="white"/>
<path fill-rule="evenodd" clip-rule="evenodd" d="M10.4481 19.8019C14.3295 17.6909 17.5544 13.9294 18 9.5C18 4.52944 13.9706 0.5 9 0.5C4.02944 0.5 0 4.52944 0 9.5C0.449096 13.9645 3.34219 17.7505 7.52835 19.8518C8.45077 20.3149 9.54146 20.2951 10.4481 19.8019ZM13 9.5C13 11.7091 11.2091 13.5 9 13.5C6.79086 13.5 5 11.7091 5 9.5C5 7.29086 6.79086 5.5 9 5.5C11.2091 5.5 13 7.29086 13 9.5Z" fill="white"/>
</svg>
