<svg width="20" height="17" viewBox="0 0 20 17" fill="none" xmlns="http://www.w3.org/2000/svg">
<path fill-rule="evenodd" clip-rule="evenodd" d="M4 0.5H16C18.2091 0.5 20 2.29086 20 4.5V12.5C20 14.7091 18.2091 16.5 16 16.5H4C1.79086 16.5 0 14.7091 0 12.5V4.5C0 2.29086 1.79086 0.5 4 0.5ZM4.6 3.05C4.35147 2.71863 3.88137 2.65147 3.55 2.9C3.21863 3.14853 3.15147 3.61863 3.4 3.95L6.2 7.68333C8.1 10.2167 11.9 10.2167 13.8 7.68333L16.6 3.95C16.8485 3.61863 16.7814 3.14853 16.45 2.9C16.1186 2.65147 15.6485 2.71863 15.4 3.05L12.6 6.78333C11.3 8.51667 8.7 8.51667 7.4 6.78333L4.6 3.05Z" fill="white"/>
</svg>
