<svg width="20" height="8" viewBox="0 0 20 8" fill="none" xmlns="http://www.w3.org/2000/svg">
<path d="M15.4697 1.53033C15.1768 1.23744 15.1768 0.762562 15.4697 0.469669C15.7626 0.176776 16.2374 0.176777 16.5303 0.469671L19.5283 3.4676C19.535 3.4743 19.5416 3.48112 19.5481 3.48807C19.6733 3.6221 19.75 3.8021 19.75 4C19.75 4.1006 19.7302 4.19658 19.6943 4.28424C19.6577 4.37377 19.603 4.45766 19.5303 4.53034L16.5303 7.53034C16.2374 7.82323 15.7626 7.82323 15.4697 7.53034C15.1768 7.23744 15.1768 6.76257 15.4697 6.46968L17.1893 4.75H1C0.585787 4.75 0.25 4.41421 0.25 4C0.25 3.58579 0.585787 3.25 1 3.25H17.1893L15.4697 1.53033Z" fill="white" fill-opacity="0.7"/>
</svg>
